<?xml version="1.0" standalone="no"?><!DOCTYPE svg PUBLIC "-//W3C//DTD SVG 1.1//EN" "http://www.w3.org/Graphics/SVG/1.1/DTD/svg11.dtd"><svg t="1720788454365" class="icon" viewBox="0 0 1024 1024" version="1.1" xmlns="http://www.w3.org/2000/svg" p-id="2400" xmlns:xlink="http://www.w3.org/1999/xlink" width="200" height="200"><path d="M700.16 209.92H148.48A99.84 99.84 0 0 0 49.28 309.12v551.68A99.2 99.2 0 0 0 148.48 960h551.68a98.56 98.56 0 0 0 99.2-99.2V309.12a99.2 99.2 0 0 0-99.2-99.2z m40.96 650.88a40.32 40.32 0 0 1-40.96 40.96H148.48a40.96 40.96 0 0 1-40.96-40.96V309.12a40.96 40.96 0 0 1 40.96-40.96h551.68a40.96 40.96 0 0 1 40.96 40.96z" fill="#606266" p-id="2401"></path><path d="M753.92 64H424.32a28.8 28.8 0 0 0-28.8 28.8 29.44 29.44 0 0 0 28.8 29.44h329.6a162.56 162.56 0 0 1 162.56 162.56v296.96a28.8 28.8 0 0 0 28.8 28.8 29.44 29.44 0 0 0 29.44-28.8V284.8A221.44 221.44 0 0 0 753.92 64zM563.2 456.32l-195.84 195.84-81.92-81.28a28.8 28.8 0 1 0-40.96 40.96l102.4 102.4a29.44 29.44 0 0 0 20.48 8.32 30.72 30.72 0 0 0 20.48-8.32l216.32-216.96a28.8 28.8 0 1 0-40.96-40.96z" fill="#606266" p-id="2402"></path></svg>