<?xml version="1.0" standalone="no"?><!DOCTYPE svg PUBLIC "-//W3C//DTD SVG 1.1//EN" "http://www.w3.org/Graphics/SVG/1.1/DTD/svg11.dtd"><svg t="1720788034546" class="icon" viewBox="0 0 1024 1024" version="1.1" xmlns="http://www.w3.org/2000/svg" p-id="1566" xmlns:xlink="http://www.w3.org/1999/xlink" width="200" height="200"><path d="M332.8 890.88H161.28a28.8 28.8 0 0 1-26.88-30.72v-704A29.44 29.44 0 0 1 161.28 128h528a29.44 29.44 0 0 1 26.88 30.72V230.4a28.8 28.8 0 0 0 28.8 28.8 29.44 29.44 0 0 0 29.44-28.8V157.44a87.68 87.68 0 0 0-85.12-88.96H161.28A87.04 87.04 0 0 0 76.8 157.44v704a86.4 86.4 0 0 0 84.48 88.96H332.8a29.44 29.44 0 0 0 29.44-28.8 30.08 30.08 0 0 0-29.44-30.72z" fill="#606266" p-id="1567"></path><path d="M594.56 265.6H266.88a29.44 29.44 0 0 0 0 58.24h327.68a29.44 29.44 0 0 0 0-58.24zM594.56 454.4H266.88a28.8 28.8 0 0 0-28.8 28.8 29.44 29.44 0 0 0 28.8 28.8h327.68a29.44 29.44 0 0 0 28.8-29.44 28.8 28.8 0 0 0-28.8-28.16zM398.72 643.84H266.88a29.44 29.44 0 0 0 0 58.24h131.84a29.44 29.44 0 1 0 0-58.24zM908.16 297.6a94.08 94.08 0 0 0-52.48-16.64 91.52 91.52 0 0 0-75.52 39.04l-307.84 440.96 151.04 105.6 307.2-440.96a91.52 91.52 0 0 0-22.4-128z m-24.96 94.72l-273.92 392.96-55.68-39.04 273.92-392.32a34.56 34.56 0 0 1 28.16-14.72 33.92 33.92 0 0 1 19.2 6.4 33.28 33.28 0 0 1 8.32 46.72zM449.28 955.52l138.88-48.64-141.44-98.56 2.56 147.2z" fill="#606266" p-id="1568"></path></svg>