<?xml version="1.0" standalone="no"?><!DOCTYPE svg PUBLIC "-//W3C//DTD SVG 1.1//EN" "http://www.w3.org/Graphics/SVG/1.1/DTD/svg11.dtd"><svg t="1720788362548" class="icon" viewBox="0 0 1024 1024" version="1.1" xmlns="http://www.w3.org/2000/svg" p-id="2240" xmlns:xlink="http://www.w3.org/1999/xlink" width="200" height="200"><path d="M879.36 691.84h-11.52V602.88a119.68 119.68 0 0 0-119.68-119.68H545.28V372.48H576a80.64 80.64 0 0 0 80-80.64V170.88A80 80 0 0 0 576 90.88H455.68a80.64 80.64 0 0 0-80.64 80v120.96a81.28 81.28 0 0 0 80.64 80.64h31.36v110.72h-211.2a119.68 119.68 0 0 0-119.68 119.68v88.96h-11.52A80 80 0 0 0 64 771.84v81.28a80 80 0 0 0 80.64 80h80.64a80 80 0 0 0 80.64-80v-81.28a80 80 0 0 0-80.64-80h-11.52V602.88a64 64 0 0 1 64-64h211.2v151.04h-17.28a80 80 0 0 0-80.64 80v81.28a80 80 0 0 0 80.64 80h80.64a80 80 0 0 0 80.64-80v-79.36a80 80 0 0 0-80.64-80h-7.04V540.8h202.88a64 64 0 0 1 64 64v88.96h-11.52a80 80 0 0 0-80.64 80v81.28a80 80 0 0 0 80.64 80h80.64A80 80 0 0 0 960 853.12v-81.28a80 80 0 0 0-80.64-80z m-448-400V170.88a22.4 22.4 0 0 1 22.4-22.4H576a22.4 22.4 0 0 1 22.4 22.4v120.96a22.4 22.4 0 0 1-22.4 22.4H455.68a22.4 22.4 0 0 1-22.4-22.4z m-185.6 480v81.28a22.4 22.4 0 0 1-22.4 22.4H144.64a22.4 22.4 0 0 1-22.4-22.4v-81.28a22.4 22.4 0 0 1 22.4-22.4h80.64a22.4 22.4 0 0 1 22.4 22.4z m327.04 0v81.28a22.4 22.4 0 0 1-22.4 22.4H471.68a22.4 22.4 0 0 1-23.68-22.4v-81.28a22.4 22.4 0 0 1 22.4-22.4h81.92a22.4 22.4 0 0 1 23.68 22.4z m327.04 81.28a22.4 22.4 0 0 1-22.4 22.4h-78.72a22.4 22.4 0 0 1-22.4-22.4v-81.28a22.4 22.4 0 0 1 22.4-22.4h80.64a22.4 22.4 0 0 1 22.4 22.4z" fill="#606266" p-id="2241"></path></svg>