<?xml version="1.0" standalone="no"?><!DOCTYPE svg PUBLIC "-//W3C//DTD SVG 1.1//EN" "http://www.w3.org/Graphics/SVG/1.1/DTD/svg11.dtd"><svg t="1720788253401" class="icon" viewBox="0 0 1024 1024" version="1.1" xmlns="http://www.w3.org/2000/svg" p-id="1725" xmlns:xlink="http://www.w3.org/1999/xlink" width="200" height="200"><path d="M934.4 467.84l-173.44-300.16a87.04 87.04 0 0 0-75.52-43.52H338.56a88.96 88.96 0 0 0-76.16 43.52l-173.44 300.8a87.68 87.68 0 0 0 0 87.68l173.44 300.16a87.04 87.04 0 0 0 75.52 43.52h346.88a88.96 88.96 0 0 0 76.16-43.52l173.44-300.8a87.68 87.68 0 0 0 0-87.68z m-49.92 58.88l-173.44 300.16a29.44 29.44 0 0 1-25.6 14.72H338.56a30.72 30.72 0 0 1-25.6-14.72L139.52 526.72a30.08 30.08 0 0 1 0-29.44l173.44-300.16a29.44 29.44 0 0 1 25.6-14.72h346.88a30.72 30.72 0 0 1 25.6 14.72l173.44 300.8a30.08 30.08 0 0 1 0 28.8z" fill="#515151" p-id="1726"></path><path d="M512 337.28A174.72 174.72 0 1 0 686.72 512 174.72 174.72 0 0 0 512 337.28z m0 291.84A117.12 117.12 0 1 1 629.12 512 117.12 117.12 0 0 1 512 629.12z" fill="#515151" p-id="1727"></path></svg>