<?xml version="1.0" standalone="no"?><!DOCTYPE svg PUBLIC "-//W3C//DTD SVG 1.1//EN" "http://www.w3.org/Graphics/SVG/1.1/DTD/svg11.dtd"><svg t="1724586330508" class="icon" viewBox="0 0 1024 1024" version="1.1" xmlns="http://www.w3.org/2000/svg" p-id="4404" xmlns:xlink="http://www.w3.org/1999/xlink" width="200" height="200"><path d="M921.514667 472.064a42.922667 42.922667 0 0 0-36.437334-7.338667A125.354667 125.354667 0 0 1 853.333333 469.333333c-70.570667 0-128-57.429333-128.128-125.354666 0.213333-1.450667 0.682667-5.717333 0.725334-7.168a42.581333 42.581333 0 0 0-53.504-42.922667A128.085333 128.085333 0 0 1 640 298.666667c-70.570667 0-128-57.429333-128-128 0-9.258667 1.322667-18.944 4.224-30.549334a42.666667 42.666667 0 0 0-45.525333-52.736A424.789333 424.789333 0 0 0 85.333333 512c0 235.264 191.402667 426.666667 426.666667 426.666667s426.666667-191.402667 426.666667-426.666667c0-2.090667-0.128-4.138667-0.298667-6.826667a42.837333 42.837333 0 0 0-16.853333-33.109333zM362.666667 256a64 64 0 1 1 0 128 64 64 0 0 1 0-128z m-85.333334 341.333333a64 64 0 1 1 0-128 64 64 0 0 1 0 128z m128 170.666667a64 64 0 1 1 0-128 64 64 0 0 1 0 128z m106.666667-277.333333a64 64 0 1 1 128 0 64 64 0 0 1-128 0z m149.333333 277.333333a64 64 0 1 1 0-128 64 64 0 0 1 0 128z" p-id="4405"></path></svg>