<?xml version="1.0" standalone="no"?><!DOCTYPE svg PUBLIC "-//W3C//DTD SVG 1.1//EN" "http://www.w3.org/Graphics/SVG/1.1/DTD/svg11.dtd"><svg t="1720503850419" class="icon" viewBox="0 0 1024 1024" version="1.1" xmlns="http://www.w3.org/2000/svg" p-id="1562" xmlns:xlink="http://www.w3.org/1999/xlink" width="200" height="200"><path d="M476.8 586.88a333.44 333.44 0 0 1 202.88 69.12 26.24 26.24 0 0 0 17.28 6.4 28.16 28.16 0 0 0 23.04-11.52 29.44 29.44 0 0 0-5.12-40.96 398.08 398.08 0 0 0-110.08-58.88 275.84 275.84 0 1 0-278.4-5.12A392.96 392.96 0 0 0 45.44 921.6v38.4a29.44 29.44 0 0 0 29.44 28.8 28.8 28.8 0 0 0 28.8-28.8v-38.4a335.36 335.36 0 0 1 334.72-334.72zM252.16 311.04a218.24 218.24 0 1 1 218.24 218.24 218.24 218.24 0 0 1-218.24-218.24z" fill="#515151" p-id="1563"></path><path d="M453.76 729.6a30.08 30.08 0 0 0-29.44 29.44 29.44 29.44 0 0 0 29.44 28.8h171.52a28.8 28.8 0 0 0 28.8-28.8 29.44 29.44 0 0 0-28.8-29.44zM688 759.04a83.2 83.2 0 1 0 83.2-83.2 83.2 83.2 0 0 0-83.2 83.2z m83.2-24.96a24.96 24.96 0 0 1 24.96 24.96 25.6 25.6 0 0 1-24.96 24.96 24.96 24.96 0 0 1-24.96-24.96 24.32 24.32 0 0 1 24.96-24.96zM949.12 730.24h-32.64a28.8 28.8 0 0 0 0 57.6h32.64a28.8 28.8 0 1 0 0-57.6zM949.12 876.8h-171.52a29.44 29.44 0 0 0-28.8 29.44 28.8 28.8 0 0 0 28.8 28.8h171.52a29.44 29.44 0 0 0 29.44-28.8 30.08 30.08 0 0 0-29.44-29.44zM631.68 823.04a83.2 83.2 0 1 0 83.2 83.2 83.2 83.2 0 0 0-83.2-83.2z m0 108.16a25.6 25.6 0 0 1-24.96-24.96 24.96 24.96 0 0 1 24.96-24.96 24.32 24.32 0 0 1 24.96 24.96 24.96 24.96 0 0 1-24.96 24.96zM486.4 876.8h-32.64a29.44 29.44 0 0 0-29.44 28.8 30.08 30.08 0 0 0 29.44 29.44h32.64a30.08 30.08 0 0 0 29.44-29.44 29.44 29.44 0 0 0-29.44-28.8z" fill="#515151" p-id="1564"></path></svg>