<?xml version="1.0" standalone="no"?><!DOCTYPE svg PUBLIC "-//W3C//DTD SVG 1.1//EN" "http://www.w3.org/Graphics/SVG/1.1/DTD/svg11.dtd"><svg t="1720087572398" class="icon" viewBox="0 0 1024 1024" version="1.1" xmlns="http://www.w3.org/2000/svg" p-id="1129" xmlns:xlink="http://www.w3.org/1999/xlink" width="200" height="200"><path d="M512.7 87.9c-235.3 0-426 190.7-426 426s190.7 426 426 426 426-190.7 426-426-190.8-426-426-426z m0 786.4c-198.8 0-360.5-161.7-360.5-360.5s161.7-360.5 360.5-360.5S873.2 315 873.2 513.8 711.4 874.3 512.7 874.3z" p-id="1130" fill="#1296db"></path><path d="M512.7 481.1c-18.1 0-32.8 14.7-32.8 32.8V776c0 18.1 14.7 32.8 32.8 32.8s32.8-14.7 32.8-32.8V513.9c-0.1-18.1-14.7-32.8-32.8-32.8zM479.9 284.5h65.5V350h-65.5z" p-id="1131" fill="#1296db"></path></svg>