<?xml version="1.0" standalone="no"?><!DOCTYPE svg PUBLIC "-//W3C//DTD SVG 1.1//EN" "http://www.w3.org/Graphics/SVG/1.1/DTD/svg11.dtd"><svg t="1720088309505" class="icon" viewBox="0 0 1024 1024" version="1.1" xmlns="http://www.w3.org/2000/svg" p-id="936" xmlns:xlink="http://www.w3.org/1999/xlink" width="200" height="200"><path d="M544.490667 82.282667l411.306666 694.869333a41.898667 41.898667 0 0 1 0 36.565333c-5.589333 10.944-18.709333 18.282667-31.786666 18.282667H101.333333c-13.034667 0-24.234667-7.338667-31.744-18.282667a32.597333 32.597333 0 0 1-5.397333-21.909333 32.277333 32.277333 0 0 1 5.397333-14.656l411.306667-694.869333c5.610667-10.944 18.709333-18.282667 31.808-18.282667 13.056 0 24.32 7.338667 31.765333 18.282667z m-33.6 91.434666L164.906667 758.826667h691.754666L510.826667 173.717333h0.064z m-33.706667 201.130667h74.794667v219.434667h-74.794667V374.848z m0 256h74.794667V704h-74.794667v-73.152z" p-id="937" fill="#d81e06"></path></svg>